<?xml version="1.0" standalone="no"?><!DOCTYPE svg PUBLIC "-//W3C//DTD SVG 1.1//EN" "http://www.w3.org/Graphics/SVG/1.1/DTD/svg11.dtd"><svg t="1643338034391" class="icon" viewBox="0 0 1024 1024" version="1.1" xmlns="http://www.w3.org/2000/svg" p-id="1740" xmlns:xlink="http://www.w3.org/1999/xlink" width="200" height="200"><defs><style type="text/css"></style></defs><path d="M986.624 562.78c0-28.46-13.092-53.852-33.584-70.512-6.896-233.548-198.368-420.764-433.588-420.764-234.232 0-425.068 185.652-433.48 417.828-22.664 16.52-37.4 43.252-37.4 73.448 0 39.852 25.672 73.68 61.372 85.916 59.212 169.108 220.18 290.412 409.5 290.412 189.916 0 351.304-122.056 410.072-291.992 33.464-13.388 57.108-46.088 57.108-84.336z" fill="#FFE5B8" p-id="1741"></path><path d="M519.452 969.108c-192.328 0-364.704-119.104-433.168-297.792a120.868 120.868 0 0 1-67.712-108.536c0-33.416 14.02-65.348 38.104-88.04 7.488-115.168 57.068-222.308 140.5-302.956 86.912-84.008 201.364-130.276 322.268-130.276 121.46 0 236.288 46.628 323.336 131.296 83.796 81.508 133.108 189.672 139.696 305.8a120.304 120.304 0 0 1 34.14 84.176c0 44.904-24.352 85.192-63.088 106.164-67.848 180.076-240.68 300.164-434.076 300.164z m0-867.604c-105.264 0-204.908 40.28-280.572 113.416-75.48 72.96-119.132 170.8-122.924 275.496l-0.528 14.568-11.78 8.588c-15.932 11.616-25.072 29.544-25.072 49.2A60.84 60.84 0 0 0 119.68 620.32l13.772 4.724 4.812 13.748c56.616 161.688 209.804 270.32 381.192 270.32 172.096 0 325.5-109.228 381.716-271.792l4.476-12.952 12.728-5.088a60.56 60.56 0 0 0 38.252-56.492c0-18.384-8.208-35.6-22.508-47.236l-10.656-8.664-0.412-13.728c-3.108-105.284-46.468-203.78-122.1-277.344-75.784-73.716-175.756-114.312-281.5-114.312z" fill="#6E6E96" p-id="1742"></path><path d="M683.764 103.728c-52.5 64.12-81.976 143.148-56.236 206.732 0 0 94.416 181.812 325.508 181.812-5.184-175.804-114.972-325.34-269.272-388.544z" fill="#8A8ABD" p-id="1743"></path><path d="M953.048 522.272c-246.492 0-347.936-189.908-352.132-197.992a32.504 32.504 0 0 1-1.188-2.568c-27.592-68.168-4.86-156.764 60.828-236.996a30.004 30.004 0 0 1 34.584-8.756c169.488 69.424 282.492 232.488 287.896 415.42a30.012 30.012 0 0 1-29.988 30.892z m-298.268-224.48c8.272 15.02 86.716 148.592 266.036 163.188-15.232-138.508-101.356-260.068-227.62-320.276-40.648 56.728-54.952 114.22-38.416 157.088z" fill="#6E6E96" p-id="1744"></path><path d="M751.764 138.924c-67.164-42.68-146.844-67.416-232.312-67.416-234.232 0-425.068 185.652-433.48 417.832 0.004-0.004 504.892 17.092 665.792-350.416z" fill="#ACACD4" p-id="1745"></path><path d="M96.436 519.46h-0.008c-7.444 0-11.464-0.14-11.464-0.14a30.04 30.04 0 0 1-28.968-31.072c4.356-120.28 54.5-232.668 141.184-316.464 86.912-84.012 201.364-130.28 322.272-130.28 88.28 0 174.18 24.932 248.404 72.096a30 30 0 0 1 11.396 37.352c-65.632 149.912-191.284 256.828-373.472 317.776-140.684 47.072-272.324 50.732-309.344 50.732zM519.452 101.504c-105.264 0-204.908 40.28-280.572 113.416-67.896 65.628-110.04 151.384-120.584 244.164 50.82-1.628 156.552-9.82 268.444-47.252 155.368-51.98 264.996-139.712 326.256-260.98-59.132-32.356-125.516-49.348-193.544-49.348z" fill="#6E6E96" p-id="1746"></path><path d="M513.364 917.108c-184.096 0-348.976-119.284-414.328-298.24-39.092-20.24-64.464-61.924-64.464-108.092h60c0 26.192 15.532 49.376 38.652 57.692l13.692 4.924 4.608 13.804c53.876 161.436 199.288 269.908 361.84 269.908 163.232 0 308.84-109.056 362.34-271.384l4.276-12.976 12.596-5.288c21.896-9.196 36.04-31.444 36.04-56.68h60c0 44.528-23.164 84.596-60.056 105.704-64.744 180.356-230.072 300.628-415.196 300.628z" fill="#6E6E96" opacity=".2" p-id="1747"></path></svg>